<svg xmlns="http://www.w3.org/2000/svg" xmlns:xlink="http://www.w3.org/1999/xlink" viewBox="0 0 566.93 566.93"><defs><style>.cls-1{fill:none;}.cls-2{fill:#a2c617;}.cls-3{clip-path:url(#clip-path);}.cls-4{fill:#fff;}.cls-5{fill:#1d1d1b;}</style><clipPath id="clip-path" transform="translate(0 0)"><rect class="cls-1" width="566.93" height="566.93"/></clipPath></defs><g id="Ebene_2" data-name="Ebene 2"><g id="Ebene_1-2" data-name="Ebene 1"><rect class="cls-2" width="566.93" height="566.93"/><g class="cls-3"><path class="cls-4" d="M526.55,281.91V249.47H443.6V208.12h68.59V176.43H443.6V142.75h77.25V110.31H405v171.6Zm-214.7,0Q322,260.39,332,237.11t18.81-46.06q8.91-22.78,16.42-43.55t13.27-37.19H339.33q-4.83,15-10.73,32.16t-12,34.25q-6.12,17.07-11.86,32.7t-10.57,26.93q-5.13-11.37-10.73-27l-11.73-32.7q-6.12-17.07-12-34.25T249,110.31H206.38q5.48,16.34,13,37.15T235.86,191q9,22.75,18.94,46T275,281.91ZM190.78,156.12A69.37,69.37,0,0,0,171,128.88a82,82,0,0,0-30.83-15.6,150.37,150.37,0,0,0-40-5q-10.4,0-24.88.87a228,228,0,0,0-27.86,3.34V279.68a197.78,197.78,0,0,0,27.24,3.59q13.86.87,24.26.87,22.78,0,41.11-5.45t31.08-16.34a71.9,71.9,0,0,0,19.68-27.49q6.93-16.58,6.93-38.87,0-23.28-6.93-39.87M86,142a76.27,76.27,0,0,1,7.92-.62c2.81-.08,5.53-.13,8.17-.13q29,0,42.35,13.87T157.85,196q0,25.75-14,40.36t-43,14.61q-5,0-8.54-.12c-2.39-.09-4.5-.21-6.31-.38Z" transform="translate(0 0)"/><path class="cls-5" d="M347.23,492.35a13.19,13.19,0,0,1,.78-3.75,10,10,0,0,1,1.85-3.14,9,9,0,0,1,2.77-2.17,7.79,7.79,0,0,1,3.6-.8,7.12,7.12,0,0,1,5.89,2.59,11.78,11.78,0,0,1,2.19,7.27ZM343.94,501a12.72,12.72,0,0,0,2.6,4.94,12,12,0,0,0,4.56,3.23,17.32,17.32,0,0,0,6.69,1.15,19.23,19.23,0,0,0,5.22-.63,14.76,14.76,0,0,0,3-1.1l-.69-3.23a19.22,19.22,0,0,1-2.6,1,16.07,16.07,0,0,1-4.84.58q-5.55,0-8.08-2.95c-1.7-2-2.6-4.77-2.72-8.42h20.95q.06-.4.09-.87c0-.3,0-.61,0-.92q0-7.44-3.26-11a11.25,11.25,0,0,0-8.74-3.58,12.7,12.7,0,0,0-4.82.95A11.6,11.6,0,0,0,347.2,483a15.16,15.16,0,0,0-2.94,4.88,18.92,18.92,0,0,0-1.13,6.84,22.86,22.86,0,0,0,.81,6.26m-8.2-32.26a2.85,2.85,0,0,0-3.92,0,3.14,3.14,0,0,0,0,4.21,2.85,2.85,0,0,0,3.92,0,3.14,3.14,0,0,0,0-4.21m-.05,11.11h-3.75v29.84h3.75Zm-33,28.11a13.31,13.31,0,0,0,3.15,1.58,14.07,14.07,0,0,0,5.11.84,13.62,13.62,0,0,0,5.74-1.15A12,12,0,0,0,321,506a14.06,14.06,0,0,0,2.63-4.9,21.09,21.09,0,0,0,.89-6.26,18.79,18.79,0,0,0-1.07-6.53,14,14,0,0,0-3-4.9,12.86,12.86,0,0,0-4.62-3.09,16,16,0,0,0-6-1.07,35,35,0,0,0-6.58.52,33.65,33.65,0,0,0-4.27,1.1v39.48h3.75Zm0-24.47a15.6,15.6,0,0,1,2.57-.55,30,30,0,0,1,4.47-.26,10.21,10.21,0,0,1,7.8,3.14q2.94,3.15,2.94,9a20.39,20.39,0,0,1-.52,4.7,11.32,11.32,0,0,1-1.67,3.87,8.13,8.13,0,0,1-3,2.59,10.16,10.16,0,0,1-4.65,1,12.29,12.29,0,0,1-2.54-.26,15.26,15.26,0,0,1-2.25-.67,12.4,12.4,0,0,1-1.82-.86,13.23,13.23,0,0,1-1.3-.87Zm-28.31-3.93a14,14,0,0,0-3,.87l.52,3.29c.5-.2,1.29-.44,2.37-.75a19.17,19.17,0,0,1,4.91-.46,8.24,8.24,0,0,1,3.72.72,5.59,5.59,0,0,1,2.19,1.9,6.55,6.55,0,0,1,1,2.66,20,20,0,0,1,.23,3v1.84a5.23,5.23,0,0,0-.83-.26c-.41-.09-.89-.19-1.45-.29s-1.13-.17-1.73-.23-1.16-.08-1.7-.08a22.63,22.63,0,0,0-5,.52,11.46,11.46,0,0,0-4,1.64,7.75,7.75,0,0,0-2.6,2.86,8.65,8.65,0,0,0-.93,4.15,9.9,9.9,0,0,0,.84,4.3,7.76,7.76,0,0,0,2.31,2.89,9.56,9.56,0,0,0,3.46,1.64,17.09,17.09,0,0,0,4.36.52c1.23,0,2.43-.05,3.61-.14s2.24-.22,3.2-.38,1.81-.29,2.54-.43a17,17,0,0,0,1.67-.37V490.16a16.13,16.13,0,0,0-.57-4.39,9.15,9.15,0,0,0-1.85-3.49,8.61,8.61,0,0,0-3.32-2.31,13.39,13.39,0,0,0-5-.83,25.94,25.94,0,0,0-4.94.4m2.08,27.1a6.9,6.9,0,0,1-2.42-1,4.47,4.47,0,0,1-1.56-1.85A6.49,6.49,0,0,1,272,501a5.23,5.23,0,0,1,.81-3.06,5.78,5.78,0,0,1,2.08-1.81,8.24,8.24,0,0,1,2.77-.87,22.39,22.39,0,0,1,2.88-.2,17.92,17.92,0,0,1,3.81.32,11.4,11.4,0,0,1,2,.6v10.51a25.72,25.72,0,0,1-2.8.37c-1.09.1-2.37.15-3.83.15a14.78,14.78,0,0,1-3.21-.32m-23.11-26.72a26.15,26.15,0,0,0-4,1.3v28.45h3.75V483.52a10.94,10.94,0,0,1,1.93-.57,17.66,17.66,0,0,1,3.9-.35,21.74,21.74,0,0,1,3.72.26,8.24,8.24,0,0,1,1.87.49l.75-3.23a10.55,10.55,0,0,0-2.28-.58,20.37,20.37,0,0,0-3.49-.29,24.34,24.34,0,0,0-6.17.67m-32.61,12.43a13.19,13.19,0,0,1,.78-3.75,10,10,0,0,1,1.85-3.14,9,9,0,0,1,2.77-2.17,7.79,7.79,0,0,1,3.6-.8,7.1,7.1,0,0,1,5.89,2.59,11.78,11.78,0,0,1,2.19,7.27ZM217.49,501a12.72,12.72,0,0,0,2.6,4.94,12,12,0,0,0,4.56,3.23,17.32,17.32,0,0,0,6.69,1.15,19.23,19.23,0,0,0,5.22-.63,14.76,14.76,0,0,0,3-1.1l-.69-3.23a19.51,19.51,0,0,1-2.59,1,16.19,16.19,0,0,1-4.85.58q-5.55,0-8.08-2.95c-1.7-2-2.6-4.77-2.72-8.42h21q.06-.4.09-.87c0-.3,0-.61,0-.92q0-7.44-3.26-11a11.23,11.23,0,0,0-8.74-3.58,12.7,12.7,0,0,0-4.82.95,11.6,11.6,0,0,0-4.16,2.91,15.16,15.16,0,0,0-2.94,4.88,18.92,18.92,0,0,0-1.13,6.84,22.86,22.86,0,0,0,.81,6.26m-27.41,8.69V484a6.46,6.46,0,0,1,1-.35c.52-.15,1.1-.3,1.76-.43s1.35-.26,2.1-.38a14.7,14.7,0,0,1,2.11-.17,12.6,12.6,0,0,1,4.21.6,5.64,5.64,0,0,1,2.69,2,9,9,0,0,1,1.44,3.57,28.3,28.3,0,0,1,.43,5.37v15.47h3.75V493a27,27,0,0,0-.54-5.6A10.92,10.92,0,0,0,207.1,483a8.94,8.94,0,0,0-3.69-2.8,14.88,14.88,0,0,0-5.77-1,19.69,19.69,0,0,0-3.81.38,22.82,22.82,0,0,0-3.75,1.07V464.88l-3.75.69v44.1Zm-21.88-39.3-3.75.69v27.47a26,26,0,0,0,.46,5.19,9,9,0,0,0,1.59,3.67,6.71,6.71,0,0,0,3,2.19,13.05,13.05,0,0,0,4.65.72,14,14,0,0,0,4.38-.66,13.8,13.8,0,0,0,2.83-1.18l-.92-3.12a17,17,0,0,1-2.25,1,10.82,10.82,0,0,1-3.81.55,10.61,10.61,0,0,1-2.54-.29,4,4,0,0,1-2-1.15,5.69,5.69,0,0,1-1.24-2.46,16,16,0,0,1-.44-4.12V483h11.89v-3.17H168.2Zm-17.54,33.3a9.18,9.18,0,0,1-14.08,0q-2.6-3.3-2.6-8.89c0-3.73.87-6.71,2.6-8.92a9.12,9.12,0,0,1,14.08,0c1.73,2.21,2.6,5.19,2.6,8.92s-.87,6.69-2.6,8.89m5.57-15.3a14.71,14.71,0,0,0-2.83-4.93,12.69,12.69,0,0,0-4.3-3.18,14,14,0,0,0-11,0,12.59,12.59,0,0,0-4.3,3.18,14.38,14.38,0,0,0-2.83,4.93,20.81,20.81,0,0,0,0,12.81,14.1,14.1,0,0,0,2.83,4.91,12.77,12.77,0,0,0,4.3,3.15,14,14,0,0,0,11,0,12.87,12.87,0,0,0,4.3-3.15,14.42,14.42,0,0,0,2.83-4.91,20.81,20.81,0,0,0,0-12.81M118.8,502.69a10.59,10.59,0,0,1-3.26,1.73,13.74,13.74,0,0,1-4.65.75,10,10,0,0,1-3.4-.61,7.79,7.79,0,0,1-3-1.93,9.89,9.89,0,0,1-2.11-3.44,14,14,0,0,1-.81-5.05,14.82,14.82,0,0,1,.69-4.64,10.64,10.64,0,0,1,2-3.64,9.05,9.05,0,0,1,3.21-2.36,10.41,10.41,0,0,1,4.3-.84,28,28,0,0,1,4.44.26,19.91,19.91,0,0,1,2.54.55Zm.06,5.48c0,3.31-.8,5.64-2.4,7s-4.16,2.05-7.7,2.05a26.06,26.06,0,0,1-4.82-.46,17.29,17.29,0,0,1-3.78-1.1l-.75,3.41a28.78,28.78,0,0,0,4,1,29.62,29.62,0,0,0,5.22.43q7,0,10.45-2.86t3.46-9.55V480.87c-1.08-.35-2.45-.7-4.12-1.07a32.92,32.92,0,0,0-6.67-.55,14.91,14.91,0,0,0-5.92,1.13,12.65,12.65,0,0,0-4.44,3.12,13.76,13.76,0,0,0-2.8,4.7,17.29,17.29,0,0,0-1,5.89,18,18,0,0,0,1.1,6.66,12.39,12.39,0,0,0,2.91,4.47,11.06,11.06,0,0,0,4.24,2.54,15.76,15.76,0,0,0,5,.81,14.48,14.48,0,0,0,2.92-.26,13.21,13.21,0,0,0,2.31-.66,16.71,16.71,0,0,0,1.7-.78,6.85,6.85,0,0,0,1-.66ZM82.5,479.92a26.53,26.53,0,0,0-4,1.3v28.45h3.75V483.52A11.23,11.23,0,0,1,84.2,483a17.66,17.66,0,0,1,3.9-.35,21.66,21.66,0,0,1,3.72.26,8.54,8.54,0,0,1,1.88.49l.75-3.23a10.9,10.9,0,0,0-2.28-.58,20.49,20.49,0,0,0-3.5-.29,24.34,24.34,0,0,0-6.17.67M72,509.67v-3.41H51.33V490.33H68.42V487H51.33V473.08H70.49v-3.41H47.41v40Z" transform="translate(0 0)"/><path class="cls-5" d="M517,431.23a17.53,17.53,0,0,1-2.56.55,31.44,31.44,0,0,1-4.48.26,10.16,10.16,0,0,1-7.79-3.15q-2.94-3.15-2.94-9a20.48,20.48,0,0,1,.52-4.71,10.82,10.82,0,0,1,1.67-3.86,8.41,8.41,0,0,1,3-2.63,10,10,0,0,1,4.65-1,12.36,12.36,0,0,1,2.54.26,15.26,15.26,0,0,1,2.25.66,12.39,12.39,0,0,1,1.82.87,11.89,11.89,0,0,1,1.29.87ZM520.72,390l-3.76.69V406.7a13.34,13.34,0,0,0-3.14-1.59,14.11,14.11,0,0,0-5.11-.83,13.59,13.59,0,0,0-5.74,1.15,12,12,0,0,0-4.24,3.23,14.26,14.26,0,0,0-2.63,4.94,20.72,20.72,0,0,0-.89,6.26,18.73,18.73,0,0,0,1.06,6.52,14.24,14.24,0,0,0,3,4.91,12.84,12.84,0,0,0,4.61,3.08,16.08,16.08,0,0,0,6,1.07,34.26,34.26,0,0,0,6.58-.52,32,32,0,0,0,4.27-1.1Zm-55.87,44.79h3.75v-26.2a13.37,13.37,0,0,1,2.51-.52,30.54,30.54,0,0,1,4.59-.29,12.22,12.22,0,0,1,4.13.6,5.62,5.62,0,0,1,2.65,2,8.83,8.83,0,0,1,1.44,3.57,28.21,28.21,0,0,1,.44,5.37v15.47h3.75V418.07a25,25,0,0,0-.58-5.6,11.49,11.49,0,0,0-1.93-4.36,8.85,8.85,0,0,0-3.64-2.8,14.47,14.47,0,0,0-5.68-1,35.67,35.67,0,0,0-6.93.58c-1.88.39-3.38.73-4.5,1Zm-24.56-30.13a14,14,0,0,0-3,.87l.52,3.29c.5-.2,1.29-.44,2.37-.75a19,19,0,0,1,4.9-.47,8.28,8.28,0,0,1,3.73.73,5.59,5.59,0,0,1,2.19,1.9,6.55,6.55,0,0,1,1,2.66,20,20,0,0,1,.23,3v1.84a5.1,5.1,0,0,0-.84-.26c-.4-.09-.88-.19-1.44-.29s-1.13-.17-1.73-.23-1.16-.08-1.7-.08a22.56,22.56,0,0,0-5,.52,11.59,11.59,0,0,0-4,1.64,7.8,7.8,0,0,0-2.59,2.86A8.65,8.65,0,0,0,434,426a9.9,9.9,0,0,0,.84,4.3,7.76,7.76,0,0,0,2.31,2.89,9.48,9.48,0,0,0,3.46,1.64,17.09,17.09,0,0,0,4.36.52c1.23,0,2.43-.05,3.61-.14s2.24-.22,3.2-.38,1.81-.29,2.54-.43a17,17,0,0,0,1.67-.37V415.24a16.13,16.13,0,0,0-.57-4.39,9.29,9.29,0,0,0-1.85-3.49,8.61,8.61,0,0,0-3.32-2.31,13.39,13.39,0,0,0-5-.83,25.94,25.94,0,0,0-4.94.4m2.08,27.1a6.9,6.9,0,0,1-2.42-1,4.47,4.47,0,0,1-1.56-1.85,6.49,6.49,0,0,1-.55-2.83,5.23,5.23,0,0,1,.81-3.06,5.78,5.78,0,0,1,2.08-1.81,8.17,8.17,0,0,1,2.77-.87,22.39,22.39,0,0,1,2.88-.2,17.92,17.92,0,0,1,3.81.32,11.68,11.68,0,0,1,2,.6v10.51a25.72,25.72,0,0,1-2.8.37q-1.64.15-3.84.15a14.75,14.75,0,0,1-3.2-.32M407,410.34a13.23,13.23,0,0,1,1.3-.87,12.39,12.39,0,0,1,1.82-.87,15.26,15.26,0,0,1,2.25-.66,12.29,12.29,0,0,1,2.54-.26,10,10,0,0,1,4.65,1,8.41,8.41,0,0,1,3,2.63,11,11,0,0,1,1.67,3.86,20.48,20.48,0,0,1,.52,4.71q0,5.88-2.94,9A10.18,10.18,0,0,1,414,432a31.39,31.39,0,0,1-4.47-.26,18,18,0,0,1-2.57-.55ZM407,390l-3.75.69v43.17a32,32,0,0,0,4.27,1.1,34.19,34.19,0,0,0,6.58.52,16.08,16.08,0,0,0,6-1.07,13,13,0,0,0,4.61-3.08,14.07,14.07,0,0,0,3-4.91,18.5,18.5,0,0,0,1.07-6.52,21,21,0,0,0-.89-6.26,14.26,14.26,0,0,0-2.63-4.94,12,12,0,0,0-4.24-3.23,13.59,13.59,0,0,0-5.74-1.15,14.07,14.07,0,0,0-5.11.83A13.66,13.66,0,0,0,407,406.7ZM386.3,405a26.53,26.53,0,0,0-4,1.3v28.45h3.75V408.6A11.23,11.23,0,0,1,388,408a17.72,17.72,0,0,1,3.9-.35,21.66,21.66,0,0,1,3.72.26,8.37,8.37,0,0,1,1.88.49l.75-3.23a10.55,10.55,0,0,0-2.28-.58,20.45,20.45,0,0,0-3.49-.29,24.37,24.37,0,0,0-6.18.67m-32.61,12.43a13.19,13.19,0,0,1,.78-3.75,10.14,10.14,0,0,1,1.85-3.14,9.1,9.1,0,0,1,2.77-2.17,7.83,7.83,0,0,1,3.61-.81,7.09,7.09,0,0,1,5.88,2.6,11.84,11.84,0,0,1,2.2,7.27Zm-3.29,8.63A12.86,12.86,0,0,0,353,431a12,12,0,0,0,4.56,3.23,17.41,17.41,0,0,0,6.7,1.15,19.23,19.23,0,0,0,5.22-.63,15.25,15.25,0,0,0,3-1.1l-.69-3.23a19.78,19.78,0,0,1-2.6,1,16.14,16.14,0,0,1-4.85.58c-3.69,0-6.39-1-8.08-3s-2.6-4.77-2.71-8.42h20.95q.06-.41.09-.87c0-.3,0-.61,0-.92q0-7.44-3.26-11a11.23,11.23,0,0,0-8.74-3.58,12.55,12.55,0,0,0-4.82.95,11.56,11.56,0,0,0-4.15,2.91,15,15,0,0,0-2.95,4.88,18.93,18.93,0,0,0-1.12,6.84,23.26,23.26,0,0,0,.8,6.26m-36.76-31.31q2.66,7.58,4.76,13.28t4,10.32q1.83,4.61,3.51,8.5t3.43,7.9H333c1.2-2.64,2.34-5.26,3.44-7.86s2.24-5.44,3.44-8.52,2.51-6.52,3.93-10.33,3-8.23,4.78-13.29H344.4q-1.74,5.16-3.33,9.77t-3.2,8.91c-1.07,2.86-2.14,5.67-3.23,8.43s-2.23,5.51-3.43,8.27q-1.87-4.22-3.48-8.34c-1.06-2.76-2.12-5.57-3.16-8.43s-2.11-5.83-3.19-8.88-2.2-6.3-3.35-9.73Zm-25,10.25a26.53,26.53,0,0,0-4,1.3v28.45h3.75V408.6a11.23,11.23,0,0,1,1.93-.57,17.66,17.66,0,0,1,3.9-.35,21.66,21.66,0,0,1,3.72.26,8.54,8.54,0,0,1,1.88.49l.75-3.23a10.9,10.9,0,0,0-2.28-.58,20.45,20.45,0,0,0-3.49-.29,24.37,24.37,0,0,0-6.18.67M256,417.43a13.19,13.19,0,0,1,.78-3.75,10,10,0,0,1,1.85-3.14,9.1,9.1,0,0,1,2.77-2.17,7.83,7.83,0,0,1,3.61-.81,7.09,7.09,0,0,1,5.88,2.6,11.84,11.84,0,0,1,2.2,7.27Zm-3.29,8.63a12.86,12.86,0,0,0,2.6,4.94,12,12,0,0,0,4.56,3.23,17.39,17.39,0,0,0,6.69,1.15,19.31,19.31,0,0,0,5.23-.63,15.25,15.25,0,0,0,3-1.1l-.69-3.23a19.78,19.78,0,0,1-2.6,1,16.14,16.14,0,0,1-4.85.58c-3.69,0-6.39-1-8.08-3s-2.6-4.77-2.71-8.42h20.95c0-.27.06-.56.08-.87s0-.61,0-.92q0-7.44-3.26-11a11.23,11.23,0,0,0-8.74-3.58,12.55,12.55,0,0,0-4.82.95,11.69,11.69,0,0,0-4.16,2.91,15.16,15.16,0,0,0-2.94,4.88A18.93,18.93,0,0,0,252,419.8a22.87,22.87,0,0,0,.8,6.26m-27.41,8.69V409.07a6.46,6.46,0,0,1,1-.35c.52-.15,1.11-.3,1.76-.43s1.36-.26,2.11-.38a14.56,14.56,0,0,1,2.1-.17,12.66,12.66,0,0,1,4.22.6,5.61,5.61,0,0,1,2.68,2,9,9,0,0,1,1.44,3.57,28.21,28.21,0,0,1,.44,5.37v15.47h3.75V418.07a26.92,26.92,0,0,0-.55-5.6,11.05,11.05,0,0,0-1.93-4.36,9,9,0,0,0-3.7-2.8,14.88,14.88,0,0,0-5.77-1,19.69,19.69,0,0,0-3.81.38,22.82,22.82,0,0,0-3.75,1.07V390l-3.75.69v44.1Zm-12.61.08a14.05,14.05,0,0,0,3.26-1.12l-.81-3.23a17.15,17.15,0,0,1-2.39.95,12.92,12.92,0,0,1-4.07.55,12.37,12.37,0,0,1-5-.9,8.62,8.62,0,0,1-3.35-2.48,9.87,9.87,0,0,1-1.88-3.81,19.54,19.54,0,0,1-.57-4.87q0-5.9,2.56-9.09t7.54-3.21a17.2,17.2,0,0,1,3.86.35,12.4,12.4,0,0,1,2.6.92l1-3.23a11.56,11.56,0,0,0-3.26-1,23.94,23.94,0,0,0-4.53-.4,13.92,13.92,0,0,0-5.71,1.12,12,12,0,0,0-4.33,3.21,14.22,14.22,0,0,0-2.74,5,21.91,21.91,0,0,0,0,12.73,14,14,0,0,0,2.68,4.9,11.45,11.45,0,0,0,4.42,3.15,15.94,15.94,0,0,0,6.11,1.09,19.11,19.11,0,0,0,4.65-.55m-38-3a15,15,0,0,1-2.34-.55,15.48,15.48,0,0,1-1.56-.57,7.82,7.82,0,0,1-.75-.38l-1,3.41a22.53,22.53,0,0,0,2.77,1,20.85,20.85,0,0,0,6,.66q5.25,0,8.28-2.08a6.93,6.93,0,0,0,3-6.11,7.5,7.5,0,0,0-.75-3.55,8,8,0,0,0-2-2.43,12.37,12.37,0,0,0-2.8-1.73c-1.06-.47-2.16-.94-3.32-1.4s-2.1-.88-3-1.27a10.88,10.88,0,0,1-2.19-1.24,4.56,4.56,0,0,1-1.36-1.53,4.35,4.35,0,0,1-.46-2.08,3.76,3.76,0,0,1,.52-2,4.36,4.36,0,0,1,1.38-1.39,6.27,6.27,0,0,1,2-.81,10.18,10.18,0,0,1,2.39-.26,15.54,15.54,0,0,1,4.82.57,23.21,23.21,0,0,1,2.34.93l.86-3.35a15.49,15.49,0,0,0-2.8-.92,20.24,20.24,0,0,0-5-.52,11.54,11.54,0,0,0-7.53,2.25,7.24,7.24,0,0,0-2.74,5.89,7,7,0,0,0,.69,3.23,7.55,7.55,0,0,0,1.85,2.28,13,13,0,0,0,2.66,1.67c1,.48,2.05.95,3.17,1.41,1.38.58,2.55,1.08,3.49,1.51a10.73,10.73,0,0,1,2.28,1.32,4,4,0,0,1,1.24,1.56,5.22,5.22,0,0,1,.38,2.08,3.75,3.75,0,0,1-2.11,3.61,11.78,11.78,0,0,1-5.34,1.06,18.23,18.23,0,0,1-3.14-.23m-21.1-36.42-3.75.7v27.47a25.32,25.32,0,0,0,.46,5.19,9,9,0,0,0,1.59,3.67,6.71,6.71,0,0,0,3,2.19,13.05,13.05,0,0,0,4.65.72,14,14,0,0,0,4.38-.66,13.8,13.8,0,0,0,2.83-1.18l-.92-3.12a17,17,0,0,1-2.25,1,10.9,10.9,0,0,1-3.81.55,10.55,10.55,0,0,1-2.54-.29,3.92,3.92,0,0,1-2-1.15,5.69,5.69,0,0,1-1.24-2.46,16,16,0,0,1-.44-4.12V408.08h11.89v-3.17H153.6Zm-12.75,9.47H137.1v26.2a12,12,0,0,1-2.48.52,32.57,32.57,0,0,1-4.62.29,11.47,11.47,0,0,1-4-.61,5.82,5.82,0,0,1-2.69-2,8.72,8.72,0,0,1-1.5-3.55,26.34,26.34,0,0,1-.46-5.36V404.91h-3.75v16.74a23.85,23.85,0,0,0,.61,5.6,11,11,0,0,0,2,4.32,9,9,0,0,0,3.63,2.77,13.93,13.93,0,0,0,5.6,1,35.74,35.74,0,0,0,6.93-.58c1.88-.39,3.38-.73,4.5-1ZM89.31,417.43a13.19,13.19,0,0,1,.78-3.75,10,10,0,0,1,1.85-3.14,9,9,0,0,1,2.77-2.17,7.79,7.79,0,0,1,3.6-.81,7.11,7.11,0,0,1,5.89,2.6,11.78,11.78,0,0,1,2.19,7.27ZM86,426.06a12.72,12.72,0,0,0,2.6,4.94,12,12,0,0,0,4.56,3.23,17.32,17.32,0,0,0,6.69,1.15,19.23,19.23,0,0,0,5.22-.63,14.76,14.76,0,0,0,3-1.1l-.69-3.23a19.51,19.51,0,0,1-2.59,1A16.19,16.19,0,0,1,100,432q-5.55,0-8.08-3c-1.7-2-2.6-4.77-2.72-8.42h21q.06-.41.09-.87c0-.3,0-.61,0-.92q0-7.44-3.26-11a11.23,11.23,0,0,0-8.74-3.58,12.51,12.51,0,0,0-4.82.95,11.6,11.6,0,0,0-4.16,2.91A15.16,15.16,0,0,0,86.34,413a18.92,18.92,0,0,0-1.13,6.84,22.86,22.86,0,0,0,.81,6.26M51.33,398.22l1.76-.24a43.67,43.67,0,0,1,4.54-.17A22.23,22.23,0,0,1,65.19,399a14.73,14.73,0,0,1,5.42,3.38,13.91,13.91,0,0,1,3.29,5.31,21.19,21.19,0,0,1,1.1,7,21.41,21.41,0,0,1-1.1,7.07,13.87,13.87,0,0,1-3.29,5.34,14.73,14.73,0,0,1-5.42,3.38,22,22,0,0,1-7.56,1.18,43.67,43.67,0,0,1-4.54-.17l-1.76-.23Zm26.21,7.61A17.29,17.29,0,0,0,73,399.48a19.24,19.24,0,0,0-7-3.8,29.38,29.38,0,0,0-8.89-1.27,50.27,50.27,0,0,0-5.08.26,26.72,26.72,0,0,0-4.67.83v38.56a31.56,31.56,0,0,0,4.67.77,50.27,50.27,0,0,0,5.08.26,29.38,29.38,0,0,0,8.89-1.27,19.24,19.24,0,0,0,7-3.8,17.29,17.29,0,0,0,4.53-6.35,25.51,25.51,0,0,0,0-17.84" transform="translate(0 0)"/></g></g></g></svg>